<svg width="auto" height="auto" viewBox="0 0 256 256" fill="none" xmlns="http://www.w3.org/2000/svg">
    <rect y="31" width="255" height="193" rx="6" fill="#797774" />
    <rect y="31" width="255" height="193" rx="6" fill="white" fill-opacity="0.7" />
    <rect x="6" y="52" width="244" height="166" rx="3" fill="#FAFAFA" />
    <path d="M6 55C6 53.3431 7.34315 52 9 52H247C248.657 52 250 53.3431 250 55V169H6V55Z"
        fill="url(#paint0_linear_112_76)" />
    <rect x="110" y="185" width="60" height="23" rx="2" fill="#D9D9D9" />
    <rect x="179" y="185" width="60" height="23" rx="2" fill="#D9D9D9" />
    <rect x="23" y="71" width="84" height="14" fill="#D9D9D9" />
    <rect x="23" y="104" width="113" height="2" fill="white" />
    <rect x="23" y="119" width="113" height="2" fill="white" />
    <rect x="23" y="134" width="63" height="2" fill="white" />
    <rect x="23" y="149" width="63" height="2" fill="white" />
    <defs>
        <linearGradient id="paint0_linear_112_76" x1="128" y1="52" x2="128" y2="169"
            gradientUnits="userSpaceOnUse">
            <stop stop-color="#1692DF" />
            <stop offset="1" stop-color="#066BBE" />
        </linearGradient>
    </defs>
</svg>