<svg width="auto" height="auto" viewBox="0 0 256 256" fill="none" xmlns="http://www.w3.org/2000/svg">
    <path d="M46 237V18H160L210 66V237H46Z" fill="#F7F7F7" stroke="#757471" stroke-width="3"
        stroke-linejoin="round" />
    <path d="M160 18V66H210" stroke="#757471" stroke-width="3" stroke-linejoin="round" />
    <path
        d="M140.992 94C142.24 93.9968 143.36 94.7669 143.804 95.9336L174.068 175.5H178.5C180.157 175.5 181.5 176.843 181.5 178.5C181.5 180.157 180.157 181.5 178.5 181.5H164.5C162.843 181.5 161.5 180.157 161.5 178.5C161.5 176.843 162.843 175.5 164.5 175.5H167.649L159.472 154H122.872L114.826 175.5H117.5C119.157 175.5 120.5 176.843 120.5 178.5C120.5 180.157 119.157 181.5 117.5 181.5H103.5C101.843 181.5 100.5 180.157 100.5 178.5C100.5 176.843 101.843 175.5 103.5 175.5H108.42L138.19 95.9483L138.28 95.7344C138.768 94.6856 139.822 94.0032 140.992 94ZM125.117 148H157.189L141.022 105.497L125.117 148Z"
        fill="url(#paint0_linear_2_113)" />
    <path
        d="M100.492 73.5C101.74 73.497 102.86 74.2672 103.304 75.4336L120.896 121.711L117.683 130.144L114.588 122H86.6854L80.3095 139.051C79.7291 140.602 78.0008 141.39 76.4491 140.81C74.8976 140.229 74.1101 138.501 74.6903 136.949L97.6903 75.4492L97.7802 75.2344C98.2677 74.1859 99.322 73.5034 100.492 73.5ZM88.9296 116H112.308L100.522 85.001L88.9296 116Z"
        fill="url(#paint1_linear_2_113)" />
    <defs>
        <linearGradient id="paint0_linear_2_113" x1="141" y1="94" x2="141" y2="181.5"
            gradientUnits="userSpaceOnUse">
            <stop stop-color="#1B9DE3" />
            <stop offset="1" stop-color="#0984D8" />
        </linearGradient>
        <linearGradient id="paint1_linear_2_113" x1="100.5" y1="73.5" x2="100.5" y2="141"
            gradientUnits="userSpaceOnUse">
            <stop stop-color="#2DA8E6" />
            <stop offset="1" stop-color="#1290DE" />
        </linearGradient>
    </defs>
</svg>