<svg width="auto" height="auto" viewBox="0 0 256 256" fill="none" xmlns="http://www.w3.org/2000/svg">
    <path d="M161 238L47 200V64L161 102V238Z" fill="url(#paint0_linear_110_286)" />
    <path d="M209 222L161 238V102H191L209 96V222Z" fill="url(#paint1_linear_110_286)" />
    <path d="M161 100V102H191V100H161Z" fill="#AD7D40" />
    <path d="M239 84L191 100V102L239 86V84Z" fill="#946C3D" />
    <path d="M208 84L161 100H191L239 84H208Z" fill="url(#paint2_linear_110_286)" />
    <path d="M17 42.5L47 62L95 46L65 26.5L17 42.5Z" fill="url(#paint3_linear_110_286)" />
    <path d="M119 22L95 46L208 84L232 60L119 22Z" fill="url(#paint4_linear_110_286)" />
    <path d="M119 17V22L232 60V55L119 17Z" fill="url(#paint5_linear_110_286)" />
    <path d="M234 54L232 55V60L234 61V54Z" fill="#AB804D" />
    <path d="M232 55L234 54L121.5 16L119 17L232 55Z" fill="#DAB076" />
    <path d="M211 84H208L232 60L234 61L211 84Z" fill="#AB804D" />
    <path d="M47 62V64L17 44.5V42.5L47 62Z" fill="#C18D49" />
    <path d="M161 102V100L47 62V64L161 102Z" fill="#C4914B" />
    <path d="M95 46L47 62L95 78V46Z" fill="url(#paint6_linear_110_286)" />
    <path d="M95 78V46L208 84L161 100L95 78Z" fill="url(#paint7_linear_110_286)" />
    <defs>
        <linearGradient id="paint0_linear_110_286" x1="47" y1="64" x2="161" y2="238"
            gradientUnits="userSpaceOnUse">
            <stop stop-color="#DEB981" />
            <stop offset="1" stop-color="#D2A362" />
        </linearGradient>
        <linearGradient id="paint1_linear_110_286" x1="161" y1="102" x2="185" y2="230.5"
            gradientUnits="userSpaceOnUse">
            <stop stop-color="#CE994F" />
            <stop offset="1" stop-color="#C7904A" />
        </linearGradient>
        <linearGradient id="paint2_linear_110_286" x1="223.5" y1="84" x2="176" y2="100"
            gradientUnits="userSpaceOnUse">
            <stop stop-color="#DEBA84" />
            <stop offset="1" stop-color="#DCAF6E" />
        </linearGradient>
        <linearGradient id="paint3_linear_110_286" x1="17" y1="42" x2="95" y2="46"
            gradientUnits="userSpaceOnUse">
            <stop stop-color="#DDB67C" />
            <stop offset="1" stop-color="#DBAB67" />
        </linearGradient>
        <linearGradient id="paint4_linear_110_286" x1="151.5" y1="35.5" x2="146" y2="61"
            gradientUnits="userSpaceOnUse">
            <stop stop-color="#DEBC88" />
            <stop offset="1" stop-color="#DBAB67" />
        </linearGradient>
        <linearGradient id="paint5_linear_110_286" x1="119" y1="19.5" x2="232" y2="57.5"
            gradientUnits="userSpaceOnUse">
            <stop stop-color="#D09E5F" />
            <stop offset="0.505208" stop-color="#D09E5F" />
            <stop offset="1" stop-color="#D4A364" />
        </linearGradient>
        <linearGradient id="paint6_linear_110_286" x1="95" y1="46" x2="95" y2="78"
            gradientUnits="userSpaceOnUse">
            <stop stop-color="#BE8845" />
            <stop offset="1" stop-color="#A97131" />
        </linearGradient>
        <linearGradient id="paint7_linear_110_286" x1="169" y1="71" x2="161" y2="100"
            gradientUnits="userSpaceOnUse">
            <stop stop-color="#C7944D" />
            <stop offset="1" stop-color="#B0803F" />
        </linearGradient>
    </defs>
</svg>