<svg width="auto" height="auto" viewBox="0 0 256 256" fill="none" xmlns="http://www.w3.org/2000/svg">
    <rect y="31" width="255" height="193" rx="6" fill="#797774" />
    <rect y="31" width="255" height="193" rx="6" fill="white" fill-opacity="0.7" />
    <rect x="6" y="52" width="244" height="166" rx="3" fill="#FAFAFA" />
    <rect x="85" y="71" width="97" height="133" rx="3" fill="url(#paint0_linear_4_158)" />
    <rect x="195" y="71" width="44" height="2" fill="#979697" />
    <rect x="195" y="86" width="44" height="2" fill="#979697" />
    <rect x="195" y="101" width="44" height="2" fill="#979697" />
    <rect x="195" y="116" width="44" height="2" fill="#979697" />
    <rect x="24" y="71" width="44" height="2" fill="#979697" />
    <rect x="24" y="86" width="44" height="2" fill="#979697" />
    <rect x="24" y="101" width="44" height="2" fill="#979697" />
    <rect x="24" y="116" width="44" height="2" fill="#979697" />
    <rect x="24" y="131" width="44" height="2" fill="#979697" />
    <rect x="24" y="146" width="44" height="2" fill="#979697" />
    <rect x="24" y="161" width="44" height="2" fill="#979697" />
    <rect x="24" y="176" width="44" height="2" fill="#979697" />
    <rect x="24" y="191" width="44" height="2" fill="#979697" />
    <defs>
        <linearGradient id="paint0_linear_4_158" x1="133.5" y1="71" x2="133.5" y2="204"
            gradientUnits="userSpaceOnUse">
            <stop stop-color="#1692DF" />
            <stop offset="1" stop-color="#066BBE" />
        </linearGradient>
    </defs>
</svg>