<svg width="auto" height="auto" viewBox="0 0 256 256" fill="none" xmlns="http://www.w3.org/2000/svg">
    <rect y="31" width="255" height="193" rx="6" fill="#797774" />
    <rect y="31" width="255" height="193" rx="6" fill="white" fill-opacity="0.7" />
    <rect x="6" y="52" width="244" height="166" rx="3" fill="#FAFAFA" />
    <path d="M6 55C6 53.3431 7.34315 52 9 52H81V218H8C6.89543 218 6 217.105 6 216V55Z"
        fill="url(#paint0_linear_2_92)" />
    <path d="M6 55C6 53.3431 7.34315 52 9 52H81V218H8C6.89543 218 6 217.105 6 216V55Z"
        fill="#FF1F00" style="mix-blend-mode:color" />
    <path d="M6 55C6 53.3431 7.34315 52 9 52H81V218H8C6.89543 218 6 217.105 6 216V55Z" fill="white"
        fill-opacity="0.2" />
    <g style="mix-blend-mode:color-dodge" opacity="0.4">
        <path
            d="M74.0478 147H61L73.0726 128.697L61.4372 111H75.023L80.0336 119.748L85.4011 111H98.6637L87.0283 128.697L99 147H85.7168L80.0336 137.613L74.0478 147Z"
            fill="#878584" />
        <path
            d="M20.5735 111H8L19.9365 147H30.2971L36.4329 129.471L42.5688 147H55.4776L65 111H52.5941L47.4306 128.193L41.5965 111H31.2694L25.6029 128.193L20.5735 111Z"
            fill="white" />
        <path
            d="M52 119.067L53.5143 120.542L57.782 116.754C58.1262 116.486 58.8145 115.749 59.847 115.749C60.5354 115.749 61.499 115.904 60.7763 118.129C59.1243 123.213 55.7101 134.253 55.2696 137.739C54.9943 139.136 54.5124 142.432 54.6845 144.41C54.7253 144.879 54.8222 145.852 55.717 146.455C56.1644 146.757 57.4379 147.327 59.3308 146.757C60.4443 146.421 64.1904 144.611 70 138.577L68.5201 137.236L63.4608 141.594C62.7495 142.064 61.4302 142.7 60.8107 141.594C60.623 141.259 60.7901 138.222 63.4608 128.621C63.8394 127.314 65.4088 122.54 67.6941 113.905C67.7704 113.616 67.8662 112.933 67.7973 112.53C67.7514 112.262 67.4532 111.726 66.4206 111.156C66.2628 111.069 65.6635 110.95 64.3901 111.022C62.6004 111.123 57.6994 112.524 52 119.067Z"
            fill="#E91E25" />
        <circle cx="66.5" cy="104.5" r="3.5" fill="#EE252C" />
        <circle cx="70" cy="97" r="3" fill="#F0542A" />
        <circle cx="76.5" cy="93.5" r="2.5" fill="#F36C22" />
        <circle cx="82" cy="94" r="2" fill="#F57E20" />
        <circle cx="86" cy="96" r="1" fill="#F69321" />
        <circle cx="88" cy="99" r="1" fill="#F69321" />
        <circle cx="89.5" cy="101.5" r="0.5" fill="#F69321" />
        <circle cx="102.5" cy="132.5" r="3.5" fill="#EE252C" />
        <circle cx="106" cy="140" r="3" fill="#F0542A" />
        <circle cx="105" cy="147" r="2" fill="#F36C22" />
        <circle cx="101" cy="151" r="2" fill="#F57E20" />
        <circle cx="97" cy="153" r="1" fill="#F69321" />
        <circle cx="94" cy="153" r="1" fill="#F69321" />
        <circle cx="91.5" cy="152.5" r="0.5" fill="#F69321" />
    </g>
    <rect x="110" y="185" width="60" height="23" rx="2" fill="#D9D9D9" />
    <rect x="179" y="185" width="60" height="23" rx="2" fill="#D9D9D9" />
    <rect x="110" y="71" width="84" height="14" fill="#D9D9D9" />
    <rect x="110" y="104" width="113" height="2" fill="#979697" />
    <rect x="110" y="119" width="113" height="2" fill="#979697" />
    <rect x="110" y="134" width="63" height="2" fill="#979697" />
    <rect x="110" y="149" width="63" height="2" fill="#979697" />
    <defs>
        <linearGradient id="paint0_linear_2_92" x1="43.5" y1="52" x2="43.5" y2="218"
            gradientUnits="userSpaceOnUse">
            <stop stop-color="#1692DF" />
            <stop offset="1" stop-color="#066BBE" />
        </linearGradient>
    </defs>
</svg>